<?xml version="1.0" encoding="UTF-8" standalone="no"?>
<!DOCTYPE svg PUBLIC "-//W3C//DTD SVG 1.1//EN" "http://www.w3.org/Graphics/SVG/1.1/DTD/svg11.dtd">
<svg width="100%" height="100%" viewBox="0 0 2916 2268" version="1.1" xmlns="http://www.w3.org/2000/svg" xmlns:xlink="http://www.w3.org/1999/xlink" xml:space="preserve" xmlns:serif="http://www.serif.com/" style="fill-rule:evenodd;clip-rule:evenodd;stroke-linejoin:round;stroke-miterlimit:2;">
    <g transform="matrix(1,0,0,1,-84.6911,-76.8803)">
        <rect x="84.691" y="77.922" width="2346.7" height="1607" style="fill:rgb(80,78,78);"/>
        <g transform="matrix(4.19585e-17,0.685234,-0.353954,-0.410489,3027.77,710.487)">
            <rect x="84.691" y="77.922" width="2346.7" height="1607" style="fill:rgb(98,97,97);"/>
        </g>
        <g transform="matrix(1,0,0,1,-6.28397,-13.5913)">
            <text x="190.643px" y="1022.25px" style="font-family:'FuturaNowHeadline', 'Futura Now Headline', sans-serif;font-size:458.333px;fill:rgb(196,196,196);">A<tspan x="518.81px 771.352px 998.227px 1127.48px 1384.6px " y="1022.25px 1022.25px 1022.25px 1022.25px 1022.25px ">RTIST</tspan></text>
        </g>
        <g transform="matrix(1,0,0,1,-87.2348,-673.967)">
            <g transform="matrix(458.333,0,0,458.333,2052.01,2182.94)">
            </g>
            <text x="289.72px" y="2182.94px" style="font-family:'FuturaNowHeadline', 'Futura Now Headline', sans-serif;font-size:458.333px;fill:rgb(196,196,196);">R<tspan x="538.136px 960.261px 1379.18px 1799.47px " y="2182.94px 2182.94px 2182.94px 2182.94px ">OOMS</tspan></text>
        </g>
    </g>
</svg>
